# xmcd
#
# Track frame offsets: 
#        150
#        17373
#        33293
#        47688
#        69844
#        86681
#        107787
#        123213
#        140287
#        154349
#        164403
#        180930
#
# Disc length: 2783 seconds
#
# Revision: 0
# Processed by: cddbd v1.5.2PL0 Copyright (c) Steve Scherf et al.
# Submitted via: ExactAudioCopy v1.0b3
#
DISCID=8b0add0c
DTITLE=The Five Points Band - Family
DYEAR=2011
DGENRE=Blues
TTITLE0=Old Man River
TTITLE1=Everywhere
TTITLE2=Big Black Engine
TTITLE3=Itsy Bitsy
TTITLE4=Old Friend John
TTITLE5=Carrion Crow
TTITLE6=On the Compound
TTITLE7=Funny
TTITLE8=Sunshine in Hell
TTITLE9=Drinkin
TTITLE10=Gamblin
TTITLE11=Foolkiller
EXTD=
EXTT0=
EXTT1=
EXTT2=
EXTT3=
EXTT4=
EXTT5=
EXTT6=
EXTT7=
EXTT8=
EXTT9=
EXTT10=
EXTT11=
PLAYORDER=
